<svg height="auto" viewBox="0 0 1052 303" fill="none" xmlns="http://www.w3.org/2000/svg">
    <path d="M1032.42 295.049V259.624H1032.1V256.79H1030.81V253.996H1032.81V243.407H1030.81V232.937H1032.81V216.367H1030.81V188.066L1031.91 185.823C1032.18 185.232 1038.48 171.849 1028.72 151.5C1018.97 131.15 1004.57 127.647 1003.98 127.49L1000.56 126.703L1003 160.356L998.438 162.56C997.655 162.15 996.822 161.845 995.96 161.655L993.482 161.065L993.757 164.804L928.468 196.293C925.007 197.001 919.54 193.813 914.938 188.42C912.224 191.136 912.657 198.497 916.196 205.897C919.736 213.296 925.125 218.177 928.94 217.705C927.484 210.62 928.389 204.283 931.064 201.96L955.252 190.349V194.285H948.605V198.418H950.572L949.117 207.943L940.7 211.879C938.713 211.75 936.785 211.156 935.07 210.144C933.355 209.132 931.902 207.731 930.828 206.054C928.822 208.061 929.136 213.415 931.732 218.807C934.328 224.199 938.261 227.781 941.054 227.545C939.952 222.389 940.621 217.744 942.627 216.052L948.33 213.296L945.38 232.78V231.953H921.467V240.377H918.202L915.528 222.625H916.747V220.224H912.067L916 217.902V215.658H907.072V217.902L911.005 220.224H906.324V222.625H907.465L905.577 235.22H902.313V181.217H847.249V236.322H842.254V190.034C842.253 188.383 841.873 186.754 841.143 185.273C840.413 183.793 839.354 182.499 838.046 181.493V159.962C838.049 156.999 838.924 154.101 840.56 151.631C842.197 149.16 844.523 147.226 847.249 146.068V161.812H902.313V143.588C902.313 139.59 900.726 135.756 897.901 132.929C895.076 130.101 891.244 128.513 887.249 128.513H877.573V121.507C877.563 116.179 875.441 111.074 871.673 107.31C867.905 103.547 862.799 101.433 857.475 101.433H839.58C834.259 101.443 829.159 103.56 825.393 107.322C821.628 111.083 819.502 116.183 819.481 121.507V179.21H813.071C811.421 179.214 809.795 179.596 808.315 180.326C806.836 181.056 805.543 182.115 804.536 183.422C802.769 180.384 800.239 177.862 797.195 176.108C794.152 174.354 790.703 173.428 787.191 173.424H769.295C766.253 173.418 763.25 174.119 760.524 175.471C756.439 174.332 752.219 173.749 747.978 173.739C743.682 173.742 739.407 174.338 735.274 175.51L733.228 23.6952H712.226L709.905 193.695C705.063 200.669 702.22 208.836 701.685 217.311H794.428C793.904 209.136 791.231 201.245 786.679 194.437C782.128 187.628 775.859 182.145 768.508 178.541H787.348C791.153 178.541 794.816 179.981 797.604 182.573C800.391 185.165 802.094 188.717 802.372 192.514V259.664H794.506V237.7H701.685V295.206H693.386L689.453 0H677.929L673.996 295.797H673.642L669.709 0H658.224L654.96 243.683L649.65 245.808V179.997C649.61 177.828 648.731 175.759 647.198 174.225C645.665 172.691 643.597 171.811 641.43 171.771V147.091C641.43 141.872 639.358 136.866 635.67 133.175C631.982 129.485 626.98 127.411 621.764 127.411H621.45V120.484C621.447 118.404 620.954 116.354 620.011 114.5C619.068 112.647 617.701 111.042 616.022 109.817C617.399 109.069 618.264 108.124 618.264 107.101V105.369H613.898V101.748H602.099V105.369H598.166V107.101C598.166 108.124 599.031 109.069 600.408 109.817C598.729 111.042 597.362 112.647 596.419 114.5C595.476 116.354 594.983 118.404 594.98 120.484V197.788L517.734 187.987V232.229H510.182L508.491 144.769H490.005L488.039 232.111H476.24L474.548 144.651H456.063L454.371 232.111H447.449V204.991C447.439 200.161 445.517 195.532 442.104 192.116C438.691 188.701 434.065 186.778 429.239 186.767H411.776L409.967 98.717H398.443L397.931 123.751C393.549 125.196 389.732 127.985 387.022 131.722C384.311 135.459 382.844 139.955 382.828 144.572V179.131C380.574 179.52 378.53 180.693 377.055 182.443C375.58 184.192 374.769 186.407 374.765 188.696V201.252L354.707 205.542V215.068H337.126L334.333 79.4696H322.848L321.079 165.276H314.55L311.796 225.026L306.801 220.027L304.324 165.276H292.8L291.03 204.243L279.584 192.947L277.814 62.7412H269.516L267.864 181.217L267.549 180.902L263.813 184.839L262.121 62.8199H253.822L251.974 196.647L247.215 201.409L245.209 188.066H247.648V182.989H237.893L246.428 178.108V173.306H227.589V178.108L236.084 182.989H226.212V188.066H228.454L227.707 193.144C227.707 193.144 227.471 193.419 227.392 193.577C226.47 192.361 225.281 191.374 223.917 190.692C222.553 190.009 221.051 189.65 219.526 189.641H213.626V136.346C213.626 131.446 211.684 126.747 208.226 123.279C204.768 119.81 200.076 117.857 195.18 117.846H178.7C173.804 117.857 169.113 119.81 165.654 123.279C162.196 126.747 160.254 131.446 160.254 136.346V142.762H151.326C149.504 142.762 147.701 143.121 146.019 143.82C144.336 144.519 142.808 145.543 141.522 146.834C140.236 148.124 139.217 149.657 138.524 151.342C137.83 153.028 137.476 154.833 137.481 156.656V173.385H188.258V158.978C190.818 160.002 193.015 161.766 194.57 164.044C196.125 166.322 196.967 169.012 196.989 171.771V191.451C195.775 192.374 194.788 193.564 194.106 194.929C193.424 196.294 193.065 197.797 193.056 199.323V242.069H188.454V191.451H137.639V195.702L88.8681 172.086L91.0707 141.148L87.9242 141.856C87.3735 141.856 74.1583 145.202 65.1908 163.938C56.2234 182.674 62.005 194.994 62.241 195.427L63.2636 197.473V200.465L52.4082 195.387L54.0602 172.794L51.7396 173.306C51.3463 173.306 41.6709 175.746 35.1419 189.444C28.613 203.141 32.8214 212.116 32.9787 212.47L33.726 214.005V233.016H32.3494V244.116H33.726V251.162H32.3494V258.365H33.726V260.884H18.3869V263.442H18.1116V296.151H0.766602V303H1051.3V295.128L1032.42 295.049ZM915.842 234.748H907.308L911.595 231.953L915.842 234.748ZM908.448 228.844H914.702L911.595 230.891L908.448 228.844ZM1004.38 169.055L996.982 184.799L995.96 170.629L1002.61 167.441C1003.22 167.92 1003.82 168.432 1004.38 168.976V169.055ZM1014.56 203.496L998.831 188.814L1015.94 192.947C1016.32 196.445 1015.85 199.983 1014.56 203.259V203.496ZM998.831 187.24L1012.56 180.666C1014.16 184.05 1015.24 187.661 1015.74 191.372L998.831 187.24ZM998.202 185.862L1005.56 170.118C1008.12 172.805 1010.26 175.872 1011.89 179.21L998.202 185.862ZM997.14 189.798L1014.25 205.739V226.6H1012.56V238.684H1014.25V246.36H1012.56V253.996H1014.25V256.711H1008.23V259.545H1002.65L994.583 205.936H996.235V202.472H989.51L995.331 199.127V195.86H984.515L997.14 189.798ZM958.871 225.577L960.837 224.436L959.028 225.616L958.871 225.577ZM957.966 214.792L964.77 219.279H957.297L957.966 214.792ZM966.501 229.985L966.147 229.789H966.855L966.501 229.985ZM959.107 213.336H964.81L965.518 217.98L958.792 213.533L959.107 213.336ZM966.186 222.389L966.894 227.112L962.961 224.514L966.186 222.389ZM966.383 231.639H965.832H966.107H966.383ZM967.917 233.921L968.31 236.362L965.911 234.984L967.917 233.921ZM968.9 240.298H967.877L968.821 239.826L968.9 240.298ZM958.438 240.298L957.022 239.589L957.455 239.353L959.303 240.298H958.438ZM963.669 210.344L964.298 209.911V210.344H963.669ZM963.315 221.247L960.483 222.9L958.005 221.247H963.315ZM961.978 225.183L967.13 228.568H964.298L960.365 226.207L961.978 225.183ZM961.309 228.687H956.589L958.792 227.23L961.309 228.687ZM957.022 229.789H963.197L965.006 230.851L963.669 231.639H960.011L957.022 229.789ZM958.045 231.639H955.449L955.646 230.261L958.045 231.639ZM966.186 233.134L964.377 234.079L963 233.292H963.276L966.186 233.134ZM963.236 234.669L957.455 237.661L956.432 237.149L961.938 233.921L963.236 234.669ZM964.731 235.575L968.664 237.74H960.798L964.731 235.575ZM968.349 238.842L965.518 240.298H962.528L959.697 238.842H968.349ZM956.078 240.298H955.606H955.842H956.078ZM976.845 257.577V257.066H1000.8L1001.19 259.545H976.766L976.845 257.577ZM995.055 223.452H982.784L988.92 219.515L995.055 223.452ZM984.357 215.068H993.364L988.88 218.02L984.357 215.068ZM994.465 224.829L988.841 228.096L983.216 224.829H994.465ZM996.314 233.882H981.368L988.841 229.513L996.314 233.882ZM996.314 235.142L989.038 239.078L981.761 235.142H996.314ZM998.005 244.943H980.07L989.038 240.298L998.005 244.943ZM998.005 246.202L989.273 250.138L980.542 246.202H998.005ZM999.696 255.924H978.851L989.273 251.358L999.696 255.924ZM990.532 250.492L999.303 246.556L1000.52 254.822L990.532 250.492ZM990.217 239.393L997.612 235.457L998.87 243.762L990.217 239.393ZM990.217 228.608L996.196 225.144L997.336 232.741L990.217 228.608ZM990.217 218.571L994.78 215.54L995.802 222.271L990.217 218.571ZM983.61 213.651L984.79 205.779H993.325L994.505 213.651H983.61ZM987.936 218.61L982.312 222.349L983.334 215.579L987.936 218.61ZM987.936 228.647L980.857 232.78L981.997 225.183L987.936 228.647ZM987.936 239.432L979.244 243.959L980.503 235.614L987.936 239.432ZM987.936 250.532L977.632 255.058L978.929 246.596L987.936 250.532ZM988.723 202.433H981.997V205.897H983.649L977.278 248.209V240.337H971.417L967.484 213.375H968.939V210.384H966.619L965.832 205.149L983.059 196.883V199.166L988.723 202.433ZM964.377 207.55H963.787V205.975H964.141L964.377 207.55ZM960.719 207.55H960.011H960.208H960.719ZM957.415 209.045H960.719V210.305H955.96V211.328L954.544 210.423L957.415 209.045ZM956.511 219.24H950.532L957.179 214.871L956.511 219.24ZM956.275 220.736L955.882 223.491L951.122 220.736H956.275ZM957.337 221.798L959.893 223.452L957.848 224.672L956.983 224.16L957.337 221.798ZM957.848 226.404L958.202 226.6L956.471 227.742V227.151L957.848 226.404ZM954.623 231.599H948.881L955.213 227.939L954.623 231.599ZM954.426 233.095L954.033 235.653L949.156 233.095H954.426ZM955.646 233.095H961.034H961.27L955.685 236.362L955.173 236.086L955.646 233.095ZM907.386 256.042L912.145 253.956L918.202 256.633V257.144H906.914L907.386 256.042ZM907.386 250.374H918.202L912.145 253.051L907.386 250.965V250.374ZM918.202 255.688L913.207 253.523L918.202 251.319V255.688ZM918.202 249.508H906.914V248.721L911.595 246.281L917.73 249.469L918.202 249.508ZM907.386 242.896H916.747L911.713 245.533L907.386 242.896ZM907.386 241.833V241.518L912.027 238.802L917.219 241.833H907.386ZM908.134 235.535H916L912.067 237.818L908.134 235.535ZM911.162 238.291L907.229 240.495V236.126L911.162 238.291ZM911.162 245.808L907.426 247.737V243.801L911.162 245.808ZM911.162 253.681L907.465 255.255V252.067L911.162 253.681ZM918.281 258.168V259.664H906.914V258.168H918.281ZM1029.98 184.839L1008.43 164.765L1031.83 170.432C1032.21 175.307 1031.38 180.2 1029.43 184.681L1029.98 184.839ZM1031.59 168.228L1008.39 162.6L1027.19 153.586C1029.17 158.203 1030.46 163.082 1031.04 168.071L1031.59 168.228ZM1026.28 151.736L1007.21 160.553L1017.28 139.062C1020.7 142.789 1023.55 147.008 1025.73 151.579L1026.28 151.736ZM1016.1 137.684L1005.95 159.293L1003.28 130.048C1007.92 131.5 1012.13 134.068 1015.55 137.527L1016.1 137.684ZM1006.11 166.142L1029.71 187.948V216.524H1027.35V233.095H1029.71V243.565H1027.35V254.035H1029.71V256.83H1015.47V254.114H1016.92V246.478H1015.47V238.684H1016.92V226.6H1015.47V205.936L1016.25 204.283C1016.45 203.889 1021.05 194.088 1013.93 179.21C1011.71 174.37 1008.49 170.052 1004.49 166.536L1006.11 166.142ZM995.409 163.505H995.96L995.409 163.899V163.505ZM959.264 188.184L994.072 171.495L995.095 185.665L964.495 200.347L964.18 198.221H966.147V194.088H959.264V188.184ZM952.145 198.221H962.41L962.843 201.095L950.847 206.841L952.145 198.221ZM952.381 211.171L955.37 213.139H955.646H955.921L949.156 217.626L950.021 211.958L952.381 211.171ZM948.644 221.365L955.016 225.302V226.207L947.386 230.655L948.644 221.365ZM953.207 237.11L952.814 239.865L952.224 240.18H945.813L946.757 233.764L953.207 237.11ZM917.612 243.486V248.406L912.381 245.73L917.534 243.053L917.612 243.486ZM917.219 241.125L912.303 238.212L916.432 235.811L917.219 241.125ZM915.449 229.316L916.157 234L912.224 231.442L915.449 229.316ZM908.488 222.586H914.427L915.253 227.978H907.662L908.488 222.586ZM907.465 229.316L910.69 231.442L906.757 234L907.465 229.316ZM824.555 121.507C824.565 117.512 826.156 113.684 828.979 110.859C831.801 108.034 835.627 106.442 839.619 106.432H857.751C861.742 106.442 865.568 108.034 868.391 110.859C871.214 113.684 872.804 117.512 872.814 121.507V128.474H862.431C858.933 128.477 855.546 129.701 852.853 131.936C850.161 134.171 848.332 137.275 847.682 140.715C843.5 141.919 839.822 144.452 837.204 147.931C834.586 151.41 833.17 155.647 833.169 160.002V179.328C832.606 179.288 832.04 179.288 831.477 179.328H824.791L824.555 121.507ZM638.795 172.046C637.068 172.528 635.542 173.554 634.444 174.972C633.346 176.39 632.734 178.125 632.698 179.918V184.366C629.417 182.091 625.521 180.869 621.528 180.863H621.214V142.211H621.764C626.34 142.221 630.726 144.045 633.962 147.283C637.198 150.521 639.02 154.911 639.031 159.49L638.795 172.046ZM621.214 183.461H621.764C625.873 183.474 629.839 184.969 632.934 187.672V243.368L621.45 247.973L621.214 183.461ZM621.764 129.655C626.34 129.665 630.726 131.489 633.962 134.727C637.198 137.965 639.02 142.354 639.031 146.934V150.358C637.367 147.214 634.883 144.581 631.842 142.737C628.802 140.893 625.319 139.909 621.764 139.888H621.45V129.655H621.764ZM575.118 209.833H593.918V218.413H575.118V209.833ZM549.12 209.833H567.92V218.413H549.002L549.12 209.833ZM523.161 209.833H541.962V218.413H523.043L523.161 209.833ZM79.3893 202.315L91.1886 199.441L80.7659 209.124L79.9007 208.731C79.2762 206.653 79.0625 204.474 79.2713 202.315H79.3893ZM235.455 206.644L229.831 210.344V202.905L235.455 206.644ZM229.831 215.501H233.213L231.6 217.114L229.831 216.091V215.501ZM235.062 213.651H229.831V212.549L237.107 207.747L239.467 209.282L235.062 213.651ZM230.499 201.173H243.754L237.107 205.542L230.499 201.173ZM230.263 218.453L229.831 218.925V218.177L230.263 218.453ZM374.726 258.601H350.813V248.997H374.726V258.601ZM374.726 264.426V274.109H350.813V264.505L374.726 264.426ZM420.547 215.068V205.818C423.318 208.155 425.091 211.464 425.502 215.068H420.547ZM396.633 179.092H385.345C385.369 175.319 386.499 171.636 388.597 168.501C390.695 165.365 393.667 162.916 397.145 161.458L396.633 179.092ZM374.608 238.684V241.046H229.713V238.684H374.608ZM317.46 258.64V249.036H344.166V258.64H317.46ZM344.166 264.466V274.109H317.46V264.505L344.166 264.466ZM284.265 258.64V249.036H311.049V258.64H284.265ZM310.97 264.466V274.109H284.265V264.505L310.97 264.466ZM251.069 258.64V249.036H277.775V258.64H251.069ZM277.775 264.466V274.109H251.069V264.505L277.775 264.466ZM231.207 264.466H244.58V274.109H231.207V264.466ZM229.713 258.64V249.036H244.58V258.64H229.713ZM79.5467 234.158V235.142H78.0128L79.5467 234.158ZM84.5024 218.413V215.776L92.8405 219.712L90.0874 237.936L87.5702 221.09H88.8681V218.335L84.5024 218.413ZM104.994 238.094L98.9369 234.984L102.319 233.213C102.338 233.567 102.338 233.922 102.319 234.276C103.074 234.306 103.822 234.129 104.483 233.764L104.994 238.094ZM121.002 240.219L123.833 241.676L123.165 246.084H120.176V245.848L121.002 240.219ZM124.659 242.109L125.289 242.423L128.474 244.273L123.951 246.95L124.659 242.109ZM125.564 225.656L127.491 226.758H123.912L125.564 225.656ZM123.755 248.761L126.744 250.335H123.637V248.839L123.755 248.761ZM126.941 235.496H132.132L129.261 237.425L126.626 235.693L126.941 235.496ZM129.969 237.897L132.919 235.929L133.273 238.133H130.362L129.969 237.897ZM133.47 239.511V240.259L132.329 239.511H133.47ZM129.536 251.713L133.706 253.838V254.429H127.688L125.525 253.484L129.261 251.555L129.536 251.713ZM132.29 244.431L133.706 243.722V245.139L132.29 244.431ZM133.706 247.225V247.54H126.193L130.362 245.376L133.706 247.225ZM133.706 250.335H131.936L133.706 249.39V250.335ZM131.896 255.373L130.677 255.924L129.497 255.373H131.896ZM123.794 254.547H124.148H123.637H123.794ZM124.581 253.248L123.794 252.893V251.713H127.727L124.581 253.248ZM123.794 256.239L126.862 257.577L123.794 258.955V256.239ZM123.794 255.373H126.115L128.986 256.672L127.845 257.184L123.794 255.373ZM131.267 251.713H133.706V252.933L131.267 251.713ZM130.244 243.368L127.098 241.754H132.998L130.244 243.368ZM124.777 248.328H133.706L130.205 250.138H128.632L124.699 248.131L124.777 248.328ZM131.503 257.735L133.706 258.719V259.742L130.323 258.247L131.503 257.735ZM133.155 256.987H133.706V257.42L133.155 256.987ZM135.318 241.243H134.807L134.531 239.432H137.796V239.983L135.318 241.243ZM137.796 238.054H134.059L133.587 234.984L137.521 237.267L137.796 238.054ZM132.919 234.63H128.474L130.834 233.252L132.88 234.433L132.919 234.63ZM132.211 232.465L132.565 232.268V232.662L132.211 232.465ZM130.834 231.639L127.452 229.671H132.172V230.773L130.834 231.639ZM133.037 229.671H134.059V228.057H137.009L133.076 230.3L133.037 229.671ZM129.497 232.465L125.957 234.512L126.547 230.576L129.497 232.465ZM126.036 236.047L128.71 237.818L128.317 238.054H125.446L125.721 236.244L126.036 236.047ZM125.21 239.432H126.193L125.053 240.18L125.21 239.432ZM124.541 238.054H122.614L124.699 236.795L124.541 238.054ZM124.305 239.432V240.18L122.85 239.432H124.305ZM127.688 239.432H131.149L133.312 240.849H125.446L127.688 239.432ZM123.755 261.041L129.3 258.601L133.666 260.529V261.513H123.755V261.041ZM137.757 235.693L133.548 233.252V231.757L137.953 229.198L137.757 235.693ZM131.149 226.679H131.385C132.034 226.641 132.668 226.471 133.25 226.18C133.831 225.889 134.348 225.483 134.767 224.987L137.521 226.837L131.149 226.679ZM131.66 223.255H129.222L130.795 222.231L131.621 222.782L131.542 222.94L131.66 223.255ZM126.705 223.255H125.289V224.199L123.361 225.459L124.463 218.059L129.536 221.405L126.705 223.255ZM125.682 230.261L124.935 235.063L121.592 237.031L122.889 228.608L125.682 230.261ZM81.7492 231.206L82.1818 231.481L81.7492 231.757V231.206ZM81.7492 234.354V232.977L83.0865 232.072L88.0028 235.338H80.5299V234.354H81.7492ZM102.713 229.552L99.0155 227.388L102.083 225.616C102.455 226.813 102.628 228.063 102.595 229.316L102.713 229.552ZM101.729 224.829L98.1503 226.876L94.2171 224.632H101.572L101.729 224.829ZM102.713 230.536V230.93H92.9586L98.1503 227.899L102.713 230.536ZM102.713 231.796C102.713 231.796 102.713 231.993 102.713 232.072L98.2682 234.394L93.1945 231.796H102.713ZM98.7795 217.862H101.533L100.392 218.61L98.7795 217.862ZM101.1 223.609H94.0205L97.049 221.602L101.1 223.609ZM97.5603 227.545L92.6439 230.418L93.4305 225.144L97.5603 227.545ZM97.5603 235.063L91.5426 238.172L92.4079 232.386L97.5603 235.063ZM98.6615 246.163H91.7393L98.4256 243.25H98.6615V246.163ZM98.6615 242.227H98.4256L92.3686 239.589H98.6615V242.227ZM97.3636 242.778L91.6213 245.297L91.0707 241.361V239.944L97.3636 242.778ZM89.3794 246.202H88.8681L89.4188 245.927L89.3794 246.202ZM89.8514 242.896L84.463 239.747L89.2221 236.952L90.0087 242.03L89.8514 242.896ZM89.4974 243.84H82.1032V241.125L83.4404 240.337L89.4974 243.84ZM82.1032 245.179V244.864H89.3008L86.7049 246.202H80.8839V245.179H82.1032ZM98.6615 238.448V238.802H92.2506L98.5042 235.575L104.011 238.448H98.6615ZM101.375 219.24L102.477 218.531L102.713 219.87L101.375 219.24ZM97.0883 217.193L94.8858 216.13L95.5151 211.761H101.454L102.28 217.193H97.0883ZM96.3803 221.484L93.8238 223.215L94.2171 220.46L96.3803 221.484ZM88.0815 229.356L88.9074 234.787L84.3451 231.796L88.0815 229.356ZM82.9291 230.812L81.5919 229.907V228.411H86.5476L82.9291 230.812ZM79.5073 236.283V236.913L78.4454 236.283H79.5073ZM80.3726 236.283H87.4522L82.9291 238.684L80.3726 237.188V236.283ZM81.9459 239.471L81.5919 239.708H80.3726V238.684L81.9459 239.471ZM78.4847 243.407H76.9115L78.4847 242.502V243.407ZM78.4847 244.431V244.746H79.5073V245.69L77.0688 244.431H78.4847ZM137.639 222.113V225.105L135.593 223.766C136.312 222.879 136.932 221.915 137.442 220.893L137.639 222.113ZM130.126 218.531C130.6 218.997 130.94 219.582 131.11 220.224L130.677 220.539L125.682 217.233H127.491L130.126 218.531ZM119.743 238.212H105.977L105.23 233.095C107.622 231.273 109.516 228.877 110.736 226.128C113.096 221.169 113.371 216.248 111.562 214.32C109.604 217.149 106.606 219.087 103.224 219.712L101.965 211.446H103.106V209.085H98.6615L102.595 206.763V205.149L123.322 215.107L119.743 238.212ZM97.5996 209.164H92.9586V211.525H94.0991L93.5092 215.461L82.0245 209.951L92.2899 200.347L101.061 204.558H93.5878V206.841L97.5996 209.164ZM81.8672 214.438V218.374H80.6086V213.808L81.8672 214.438ZM86.6263 221.169L87.5702 227.427H81.8279V225.892H80.6086V221.169H86.6263ZM79.7433 225.892H78.996L79.704 221.169L79.7433 225.892ZM78.7207 233.764L77.7374 234.433L78.5634 229.001L78.7207 233.764ZM79.7433 238.094V239.629H78.7207V241.518L76.4395 242.856L77.3834 236.716L79.7433 238.094ZM77.7374 245.966H75.9676V245.139L77.7374 245.966ZM137.835 211.801L137.127 207.314H137.835V211.801ZM131.66 215.737L125.367 212.745L126.154 207.432H135.593L136.537 213.69C135.864 214.324 135.063 214.806 134.188 215.105C133.312 215.403 132.384 215.512 131.464 215.422L131.66 215.737ZM122.575 203.259V207.195H124.423L123.715 211.801L93.6665 197.395L94.8071 181.65L128.907 197.985V203.259H122.575ZM92.4079 196.647L87.2555 185.665C88.9713 183.861 91.106 182.509 93.4698 181.729L92.4079 196.647ZM91.5819 197.355L82.0638 192.789C83.2151 190.473 84.6992 188.338 86.4689 186.452L91.5819 197.355ZM91.1493 198.339L79.35 201.173C79.7092 198.605 80.4656 196.109 81.5919 193.773L91.1493 198.339ZM79.35 213.178V218.177H76.8721V220.932H78.2094L74.473 245.73H69.0846V253.012L66.8034 237.818V223.727H64.6795V223.373V214.123V211.132V206.29L79.35 213.178ZM66.2134 248.603L64.6009 247.777V242.227L66.0561 241.479L67.1967 249.154H66.8034V248.839L66.2134 248.603ZM61.2184 256.003L59.2912 255.176L61.2184 254.31V256.003ZM63.0669 246.989L59.1338 244.982L63.0669 242.974V246.989ZM61.2184 236.244L59.1338 235.063L61.2184 233.843V236.244ZM63.2636 223.727H62.3983L63.2636 223.176V223.727ZM61.4151 227.27L59.2125 225.813L61.4151 224.396V227.27ZM58.1899 225.144L54.0208 222.389H62.3197L58.1899 225.144ZM61.4151 228.647V230.222H52.5262L58.1899 226.522L61.4151 228.647ZM61.4151 231.363V232.505L58.1899 234.394L53.0376 231.363H61.4151ZM61.4151 237.582V238.96H63.2636V239.708H51.4643L58.3472 235.771L61.4151 237.582ZM63.2636 240.849V241.715L58.1899 244.352L51.4643 240.849H63.2636ZM63.2636 248.249V248.603H61.4151V249.902H49.9304L58.1899 245.612L63.2636 248.249ZM61.4151 251.043V253.09L58.0719 254.547L50.2057 251.043H61.4151ZM61.4151 257.263V258.365H63.2636V260.096H48.4751L58.0719 255.924L61.4151 257.263ZM64.7975 258.758L67.6687 259.978H64.7975V258.758ZM66.4888 258.247H67.1967V251.87L67.944 251.555L69.1239 259.427L66.4888 258.247ZM63.2636 211.132H58.7405L63.2636 208.534V211.132ZM62.123 214.32L63.185 221.444H53.1949L54.2568 214.32H62.123ZM57.128 226.128L51.9756 229.552L52.9196 223.373L57.128 226.128ZM57.128 235.378L50.599 239.314L51.661 232.308L57.128 235.378ZM57.128 245.297L49.2618 249.233L50.4024 241.557L57.128 245.297ZM56.8527 255.491L47.6492 259.427L48.7898 251.87L56.8527 255.491ZM63.4603 261.474V263.718H47.0199L47.3739 261.474H63.4603ZM64.9942 261.474H69.3992V261.946V263.718H64.9155L64.9942 261.474ZM429.278 190.625C433.138 190.625 436.839 192.159 439.568 194.89C442.298 197.621 443.831 201.326 443.831 205.188V232.308H435.729V238.684H430.891V229.946H430.615V215.068H429.042C428.769 212.261 427.85 209.556 426.355 207.165C424.86 204.775 422.832 202.764 420.429 201.291V191.451L411.619 193.34V190.428L429.278 190.625ZM385.542 144.769C385.55 140.874 386.739 137.073 388.951 133.869C391.163 130.664 394.294 128.207 397.931 126.821L397.263 158.624C392.231 160.427 388.034 164.012 385.463 168.701L385.542 144.769ZM245.602 202.393V203.259L240.686 208.14L238.719 206.841L245.602 202.393ZM230.892 188.105H243.478L245.17 199.52H230.303C230.57 198.502 230.939 197.513 231.404 196.568V189.168L230.617 190.034L230.892 188.105ZM188.336 154.373C187.733 151.212 186.049 148.359 183.573 146.305C181.097 144.25 177.983 143.123 174.767 143.116H165.21V136.346C165.21 132.671 166.668 129.147 169.265 126.549C171.861 123.951 175.382 122.491 179.054 122.491H195.534C199.172 122.543 202.643 124.025 205.197 126.618C207.751 129.211 209.182 132.705 209.182 136.346V189.404H203.007C202.496 189.366 201.983 189.366 201.473 189.404V171.771C201.436 167.793 200.119 163.934 197.717 160.764C195.315 157.595 191.957 155.285 188.14 154.176L188.336 154.373ZM137.639 203.259H132.762V199.678L137.639 202.039V203.259ZM88.4748 144.218L86.5476 170.944L77.1868 151.067C80.3599 147.973 84.2322 145.691 88.4748 144.415V144.218ZM75.7709 152.523L85.0137 172.204L67.826 163.977C69.8889 159.844 72.5677 156.048 75.7709 152.72V152.523ZM67.1967 165.906L84.463 174.211L63.1456 179.367C63.8116 174.702 65.1773 170.164 67.1967 165.906ZM62.9096 181.375L84.4237 176.179L64.7582 194.639C62.9767 190.459 62.2734 185.898 62.713 181.375H62.9096ZM64.9942 197.513L86.5476 177.478L93.2339 180.666C90.4186 181.684 87.8533 183.292 85.7097 185.383C83.5662 187.474 81.894 189.999 80.8053 192.789C78.323 197.441 77.5174 202.806 78.524 207.983L64.9942 201.488V197.513ZM52.3296 175.156L50.9137 194.836L44.1094 180.312C46.3377 177.981 49.0878 176.214 52.1329 175.156H52.3296ZM43.0475 181.257L49.8124 195.663L37.2658 189.641C38.697 186.582 40.5797 183.755 42.8508 181.257H43.0475ZM36.6365 190.9L49.2618 196.962L33.5294 200.701C34.0103 197.308 34.9911 194.005 36.4398 190.9H36.6365ZM33.5294 202.197L49.2618 198.261L34.7486 211.761C33.505 208.736 33.0189 205.453 33.3327 202.197H33.5294ZM34.8666 258.365H36.4398V251.319H34.8666V244.273H36.4398V233.174H34.8666V213.966L50.599 199.323L62.3983 204.913H52.4476V207.904L57.7573 210.974H51.4643V214.162H52.9589L45.5253 263.442H40.4123V260.884H34.8666V258.365Z" fill="#26273A" />
</svg>
