<svg width="334" height="86" viewBox="0 0 334 86" fill="none" xmlns="http://www.w3.org/2000/svg">
    <g clip-path="url(#clip0_25_3275)">
        <path d="M333.459 86C330.769 80.9714 327.183 76.3615 323.999 71.566C318.154 62.772 312.229 54.0183 306.224 45.305C305.099 43.6691 305.134 42.3957 306.224 40.7728C315.028 27.8869 323.763 14.9708 332.43 2.02444C333.383 0.604344 334.468 -0.0172148 336.419 5.07225e-05C345.823 0.0734311 355.233 0.0259465 364.642 0.0388944C367.541 0.0388947 367.663 0.220184 366.17 2.42155C357.617 15.0945 349.094 27.7847 340.433 40.4059C339.114 42.331 339.15 43.7942 340.433 45.715C348.885 58.2714 357.209 70.8926 365.559 83.4965C366.099 84.308 366.537 85.1626 367.021 85.9957L333.459 86Z" fill="#2C2D43" />
        <path d="M272.377 86C269.693 80.9714 266.106 76.3615 262.917 71.566C257.079 62.772 251.154 54.0183 245.143 45.305C244.017 43.6691 244.052 42.3957 245.143 40.7728C253.939 27.8869 262.674 14.9708 271.348 2.02444C272.301 0.604344 273.386 -0.0172148 275.337 5.07228e-05C284.741 0.0734311 294.151 0.0259465 303.56 0.0388944C306.454 0.0388947 306.576 0.220184 305.089 2.42155C296.53 15.0945 288.007 27.7847 279.352 40.4059C278.032 42.331 278.068 43.7942 279.352 45.715C287.808 58.2714 296.127 70.8926 304.482 83.4965C304.992 84.308 305.455 85.1626 305.944 85.9957L272.377 86Z" fill="#2C2D43" />
        <path d="M211.28 86C208.59 80.9714 205.004 76.3615 201.82 71.566C195.975 62.772 190.05 54.0183 184.046 45.305C182.92 43.6691 182.955 42.3957 184.046 40.7728C192.849 27.8869 201.584 14.9708 210.251 2.02444C211.204 0.604344 212.289 -0.0172148 214.24 5.07225e-05C223.649 0.0734311 233.054 0.0259465 242.463 0.0388944C245.362 0.0388947 245.484 0.220184 243.991 2.42155C235.438 15.0945 226.915 27.7847 218.254 40.4059C216.935 42.331 216.971 43.7942 218.254 45.715C226.711 58.2714 235.03 70.8926 243.38 83.4965C243.92 84.308 244.358 85.1626 244.842 85.9957L211.28 86Z" fill="#2C2D43" />
        <path d="M150.219 85.9999C147.534 80.9713 143.947 76.3614 140.758 71.5659C134.92 62.7719 128.995 54.0183 122.984 45.3049C121.863 43.669 121.894 42.3957 122.984 40.7727C131.78 27.8868 140.516 14.9707 149.19 2.02438C150.142 0.604283 151.202 -0.0172758 153.179 -1.03123e-05C162.583 0.07337 171.992 0.0258855 181.402 0.0388334C184.295 0.0388337 184.417 0.220123 182.93 2.42149C174.371 15.0944 165.848 27.7846 157.193 40.4058C155.873 42.3309 155.909 43.7942 157.193 45.715C165.65 58.2714 173.969 70.8925 182.324 83.4964C182.833 84.3079 183.297 85.1626 183.786 85.9956L150.219 85.9999Z" fill="#2C2D43" />
        <path d="M89.1417 85.9999C86.4519 80.9713 82.8655 76.3614 79.6815 71.5659C73.8365 62.7719 67.9117 54.0183 61.9071 45.3049C60.7812 43.669 60.8169 42.3957 61.9071 40.7727C70.7034 27.8868 79.4369 14.9707 88.1076 2.02438C89.0602 0.604283 90.1454 -0.0172758 92.0965 -1.03127e-05C101.506 0.07337 110.91 0.0258855 120.319 0.0388334C123.218 0.0388337 123.34 0.220123 121.848 2.42149C113.294 15.0944 104.771 27.7846 96.1109 40.4058C94.7915 42.3309 94.8271 43.7942 96.1109 45.715C104.568 58.2714 112.887 70.8925 121.236 83.4964C121.776 84.3079 122.215 85.1626 122.699 85.9956L89.1417 85.9999Z" fill="#2C2D43" />
        <path d="M28.0599 85.9999C25.3752 80.9713 21.7888 76.3614 18.6048 71.5659C12.7632 62.7719 6.83668 54.0183 0.82529 45.3049C-0.295475 43.669 -0.264908 42.3957 0.825291 40.7727C9.62163 27.8868 18.3568 14.9707 27.0309 2.02438C27.9835 0.604283 29.0687 -0.0172758 31.0198 -1.03123e-05C40.4241 0.07337 49.8335 0.0258855 59.2428 0.0388334C62.1364 0.0388337 62.2587 0.220123 60.7711 2.42149C52.2176 15.0944 43.6896 27.7846 35.0342 40.4058C33.7148 42.3309 33.7504 43.7942 35.0342 45.715C43.4909 58.2714 51.8101 70.8925 60.1649 83.4964C60.6743 84.3079 61.143 85.1626 61.627 85.9956L28.0599 85.9999Z" fill="#2C2D43" />
    </g>
    <defs>
        <clipPath id="clip0_25_3275">
            <rect width="558" height="86" fill="white" transform="translate(558 86) rotate(-180)" />
        </clipPath>
    </defs>
</svg>
