<svg width="198" height="77" fill="none" xmlns="http://www.w3.org/2000/svg">
    <path d="M40.49 29.83a7.1 7.1 0 0 1 2.185.36 6.366 6.366 0 0 1 2.042 1.096 5.623 5.623 0 0 1 1.505 1.873c.413.856.614 1.798.587 2.748.01.994-.267 1.97-.799 2.81a5.414 5.414 0 0 1-2.16 1.961l-.56.107 1.175 1.92c.265.517.617.986 1.04 1.386.39.348.854.603 1.357.747.376.1.761.162 1.15.187v3.466h-3.095c-.25 0-.453-.022-.624-.04a3.499 3.499 0 0 1-.425-.066c-.125-.028-.259-.056-.4-.094a4.646 4.646 0 0 1-1.68-.937 6.428 6.428 0 0 1-1.36-1.773l-2.055-3.788h-1.44v6.667h-5.086V29.774h8.59l.053.057Zm-3.488 8.4h2.133a2.52 2.52 0 0 0 1.642-.574c.468-.381.706-.974.706-1.774 0-.871-.238-1.502-.706-1.892a2.52 2.52 0 0 0-1.667-.587h-2.108v4.827ZM55.158 33.375v3.816h5.867v3.569h-5.867v4.109h6.72v3.572H49.85V29.774h11.818v3.576l-6.51.025ZM74.68 48.444H69.37v-7.413L63.05 29.774h5.336l3.653 6.907 3.653-6.907h5.336L74.68 41.031v7.413ZM91.378 29.774c.753.008 1.5.134 2.213.375a6.273 6.273 0 0 1 2.092 1.159 6.104 6.104 0 0 1 1.562 1.989c.421.9.626 1.885.6 2.879a6.11 6.11 0 0 1-.454 2.295 6.276 6.276 0 0 1-3.334 3.413 6.488 6.488 0 0 1-2.667.534h-3.4v6.026h-5.149v-18.67h8.537Zm-3.416 9.015h2.082a2.516 2.516 0 0 0 1.72-.652c.488-.438.732-1.109.732-2.014 0-1.015-.238-1.73-.719-2.149a2.563 2.563 0 0 0-1.733-.624H87.99l-.028 5.44ZM136.152 48.444V38.23l-3.656 10.214h-2.81l-3.653-10.214v10.214h-5.308v-18.67h6.825l3.522 9.79 3.519-9.79h6.828v18.67h-5.267ZM144.232 48.444v-18.67h5.308v18.67h-5.308ZM162.848 48.444l-5.324-9.814v9.814h-5.308v-18.67h5.574l5.27 9.737v-9.737h5.308v18.67h-5.52Z" fill="#fff" />
    <path d="M38.332 1.003V11.33c-2.697.89-5.692 2.61-8.492 5.843-7.204 8.312-7.603 20.296-7.416 21.83a15.491 15.491 0 0 0 .737 4.73c.27.854.616 1.681 1.033 2.473a15.656 15.656 0 0 0 5.152 5.74 34.894 34.894 0 0 1-12.033-5.837c-6.779-5.02-7.406-12.958-7.616-15.565 0-.17-.025-.313-.034-.444a29.592 29.592 0 0 1 1.945-4.727l-3.547-6.108a3.56 3.56 0 0 1 .294-4.04 38.321 38.321 0 0 1 5.732-5.762 3.562 3.562 0 0 1 4.06-.284l6.104 3.478a29.322 29.322 0 0 1 4.72-1.967l1.808-6.826a3.563 3.563 0 0 1 3.067-2.65 38.343 38.343 0 0 1 4.146-.226l.34.016Z" fill="#fff" />
    <path d="M38.332 54.57v10.545a18.028 18.028 0 0 1-4.57 1.834 15.227 15.227 0 0 1-4.665.405 29.61 29.61 0 0 1-4.728-1.948l-6.1 3.535a3.56 3.56 0 0 1-4.06-.297 37.255 37.255 0 0 1-3.094-2.776 36.783 36.783 0 0 1-2.663-2.957 3.55 3.55 0 0 1-.287-4.06l3.484-6.095a29.578 29.578 0 0 1-1.967-4.718l-6.807-1.823a3.56 3.56 0 0 1-2.65-3.067 38.43 38.43 0 0 1-.02-8.118 3.557 3.557 0 0 1 2.68-3.082l3.665-.996 1.905-.522c.194 2.148.493 11.366 8.287 17.14 9.61 7.12 18.55 7.2 20.92 7.038l.346-.028.324-.01ZM38.332 66.408v10.589h-.337a38.43 38.43 0 0 1-3.975-.206 3.56 3.56 0 0 1-3.082-2.676l-1.52-5.59c3.12.235 6.234-.506 8.914-2.12v.003ZM38.333 13.01v10.394c-.141 0-.256 0-.338.025a15.457 15.457 0 0 0-7.212 1.77 15.657 15.657 0 0 0-5.714 5.112c.977-3.884 2.763-8.415 5.957-12.1 2.16-2.482 4.6-4.218 7.307-5.202ZM86.6 63.614v-6.142h2.32c1.318 0 2.099.696 2.099 1.842a1.668 1.668 0 0 1-1.19 1.708l1.249 2.592h-.937l-1.146-2.433h-1.56v2.433H86.6Zm.834-3.182h1.496c.771 0 1.214-.419 1.214-1.121 0-.703-.459-1.106-1.224-1.106h-1.486v2.227ZM91.453 61.54c0-1.302.824-2.201 2.03-2.201 1.204 0 1.954.815 1.954 2.048v.294h-3.213c.06.874.518 1.358 1.308 1.358.625 0 1.03-.256 1.165-.73h.746c-.203.892-.9 1.392-1.927 1.392-1.224.013-2.063-.871-2.063-2.16Zm.79-.384h2.394a1.079 1.079 0 0 0-1.155-1.146c-.696 0-1.14.422-1.24 1.146ZM96.327 59.457h.72l.06.75a1.592 1.592 0 0 1 1.502-.868c1.19 0 1.93.893 1.93 2.167 0 1.274-.697 2.217-1.93 2.217a1.609 1.609 0 0 1-1.486-.79v2.539h-.796v-6.015Zm2.114 3.544c.814 0 1.298-.624 1.298-1.46 0-.838-.484-1.471-1.299-1.471-.814 0-1.308.602-1.308 1.47s.497 1.462 1.312 1.462h-.004ZM101.222 62.458c0-.765.568-1.249 1.546-1.317l1.308-.103v-.12c0-.696-.415-.936-.977-.936-.672 0-1.053.312-1.053.8h-.696c0-.869.712-1.437 1.783-1.437s1.724.543 1.724 1.664v2.61h-.678l-.087-.67a1.535 1.535 0 0 1-1.452.77c-.89-.005-1.418-.505-1.418-1.26Zm2.863-.624v-.222l-1.061.084c-.706.069-.996.34-.996.747 0 .406.312.665.843.665.755-.013 1.214-.49 1.214-1.287v.013ZM105.828 57.934a.52.52 0 0 1 .139-.4.52.52 0 0 1 .387-.169.527.527 0 0 1 .526.569.52.52 0 0 1-.139.399.521.521 0 0 1-.387.169.523.523 0 0 1-.498-.354.52.52 0 0 1-.028-.214Zm.134 1.51h.799v4.157h-.799v-4.156ZM110.296 60.154h-.359c-.756 0-1.221.459-1.221 1.249v2.201h-.799v-4.137h.746l.053.624a1.169 1.169 0 0 1 1.155-.721c.143 0 .285.018.425.05v.734ZM117.006 63.06a2.812 2.812 0 0 1-1.902.663c-1.318 0-2.186-.68-2.186-1.708 0-.756.484-1.358 1.502-1.874-.527-.602-.721-.977-.721-1.436 0-.771.603-1.324 1.471-1.324.868 0 1.417.518 1.417 1.274 0 .624-.312 1.087-1.105 1.624l1.47 1.673c.147-.382.219-.79.213-1.199h.774a3.354 3.354 0 0 1-.468 1.783l.937 1.09h-.937l-.465-.565Zm-1.827-.024a1.876 1.876 0 0 0 1.368-.503l-1.724-1.955c-.765.425-1.071.825-1.071 1.377 0 .663.537 1.08 1.427 1.08Zm-.1-3.229c.518-.312.762-.69.762-1.149a.631.631 0 0 0-.194-.474.62.62 0 0 0-.484-.17.643.643 0 0 0-.705.672c0 .322.143.578.621 1.121ZM122.061 61.422v2.185h-.831v-6.136h2.385a1.856 1.856 0 0 1 1.98 1.97 1.88 1.88 0 0 1-.546 1.435 1.872 1.872 0 0 1-1.434.546h-1.554Zm0-3.204v2.454h1.376c.825 0 1.284-.484 1.284-1.249 0-.765-.469-1.215-1.249-1.215l-1.411.01ZM126.029 62.458c0-.765.569-1.249 1.546-1.317l1.308-.103v-.12c0-.696-.415-.936-.977-.936-.671 0-1.052.312-1.052.8h-.697c0-.869.712-1.437 1.783-1.437s1.727.543 1.727 1.664v2.61h-.681l-.084-.67a1.534 1.534 0 0 1-1.455.77c-.89-.005-1.418-.505-1.418-1.26Zm2.863-.624v-.222l-1.061.084c-.706.069-.993.34-.993.747 0 .406.312.665.84.665.755-.013 1.214-.49 1.214-1.287v.013ZM133.148 60.154h-.356c-.755 0-1.224.459-1.224 1.249v2.201h-.799v-4.137h.749l.05.624a1.178 1.178 0 0 1 1.156-.721c.143 0 .285.018.424.05v.734ZM134.441 63.614v-3.495h-.815v-.67h.815v-1.3h.799v1.3h.815v.67h-.815v3.485l-.799.01ZM137.192 62.405c0 .425.312.68.849.68.537 0 .884-.23.884-.624 0-.28-.135-.45-.569-.562l-.73-.168c-.74-.178-1.087-.544-1.087-1.156 0-.765.646-1.249 1.561-1.249.915 0 1.505.51 1.521 1.3h-.762a.69.69 0 0 0-.784-.678c-.499 0-.78.218-.78.602 0 .281.203.466.624.569l.731.178c.706.171 1.052.493 1.052 1.114 0 .79-.677 1.29-1.664 1.29-.987 0-1.596-.518-1.596-1.308l.75.012ZM143.03 63.614v-6.142h.815l2.126 5.164 2.117-5.165h.831v6.143h-.815V61.18c-.016-.666.002-1.334.053-1.998l-1.795 4.427h-.781l-1.795-4.405c.051.592.071 1.188.059 1.782v2.627h-.815ZM150.065 57.934a.52.52 0 0 1 .139-.4.52.52 0 0 1 .387-.169.523.523 0 0 1 .498.355.52.52 0 0 1 .028.214.52.52 0 0 1-.139.399.521.521 0 0 1-.387.169.527.527 0 0 1-.526-.568Zm.134 1.51h.8v4.157h-.8v-4.156ZM152.154 63.614v-4.157h.721l.084.625a1.568 1.568 0 0 1 1.377-.756c1.096 0 1.599.672 1.599 1.733v2.542h-.799v-2.364c0-.84-.391-1.18-1.003-1.18-.749 0-1.18.534-1.18 1.343V63.6l-.799.013ZM156.9 57.934a.519.519 0 0 1 .138-.4.541.541 0 0 1 .388-.169.53.53 0 0 1 .526.569.537.537 0 0 1-.139.399.531.531 0 0 1-.599.125.541.541 0 0 1-.287-.31.519.519 0 0 1-.027-.214Zm.137 1.51h.799v4.157h-.796l-.003-4.156ZM158.992 63.614v-4.156h.718l.084.624a1.546 1.546 0 0 1 1.377-.756c1.096 0 1.596.672 1.596 1.733v2.542h-.8v-2.364c0-.84-.39-1.18-1.002-1.18-.746 0-1.18.534-1.18 1.343V63.6l-.793.013ZM165.576 59.339a1.546 1.546 0 0 1 1.452.824l.06-.705h.715v3.984c0 1.308-.809 2.142-2.083 2.142-1.13 0-1.901-.625-2.054-1.693h.799c.1.625.559.968 1.249.968a1.21 1.21 0 0 0 .942-.355 1.213 1.213 0 0 0 .35-.944v-.83a1.622 1.622 0 0 1-1.47.771c-1.18 0-1.927-.908-1.927-2.073s.762-2.09 1.967-2.09Zm.103 3.466c.806 0 1.299-.578 1.299-1.393 0-.815-.474-1.377-1.292-1.377-.818 0-1.274.625-1.274 1.377 0 .753.484 1.393 1.267 1.393ZM169.779 48.444v-5.458h3.466v1.108h-2.273v1.068h2.014v1.046h-2.014v1.13h2.273v1.106h-3.466ZM174.116 47.876a.673.673 0 0 1 .419-.621.677.677 0 0 1 .731.145.665.665 0 0 1 0 .945.676.676 0 0 1-.949.003.666.666 0 0 1-.201-.473ZM177.691 48.444h-1.192v-5.458h1.192v5.458ZM178.718 47.876a.692.692 0 0 1 .2-.476.672.672 0 0 1 1.146.473.666.666 0 0 1-.668.668.676.676 0 0 1-.477-.192.666.666 0 0 1-.201-.473ZM181.101 48.444v-5.458h2.107c1.327 0 2.08.643 2.08 1.77a1.584 1.584 0 0 1-.906 1.521l.959 2.167h-1.305l-.818-1.91h-.937v1.91h-1.18Zm1.192-2.957h.909c.524 0 .824-.265.824-.73 0-.466-.287-.71-.818-.71h-.915v1.44ZM185.99 47.876a.692.692 0 0 1 .2-.476.672.672 0 0 1 1.146.473.666.666 0 0 1-.668.668.676.676 0 0 1-.678-.665ZM189.565 47.339h2.155v1.105h-3.347v-5.458h1.192v4.353ZM192.584 47.876a.692.692 0 0 1 .2-.476.676.676 0 0 1 .95 0 .665.665 0 0 1 0 .945.667.667 0 0 1-.472.196.667.667 0 0 1-.624-.409.666.666 0 0 1-.054-.256Z" fill="#fff" />
    <path d="M84.293 54.096h108.023M84.153 53.957 82.3 52.102a.197.197 0 0 0-.278 0l-1.855 1.855a.197.197 0 0 0 0 .278l1.855 1.855a.197.197 0 0 0 .278 0l1.854-1.855a.197.197 0 0 0 0-.278ZM196.346 53.955l-1.854-1.855a.198.198 0 0 0-.279 0l-1.854 1.855a.196.196 0 0 0 0 .278l1.854 1.855a.198.198 0 0 0 .279 0l1.854-1.855a.196.196 0 0 0 0-.278Z" stroke="#fff" stroke-width="2" stroke-miterlimit="10" />
    <path d="m117.911 45.29-1.102-1.91-1.055-1.83-1.708-2.954a.523.523 0 0 1 0-.519l1.464-2.535a.488.488 0 0 0 0-.5l-5.03-8.712a.52.52 0 0 0-.896 0l-1.308 2.267-3.719 6.439a.507.507 0 0 1-.447.256h-2.916a.522.522 0 0 0-.446.26l-5.177 8.955a.516.516 0 0 0 .446.774h10.351a.505.505 0 0 1 .446.26l1.518 2.625a.514.514 0 0 0 .449.26h10.051a.517.517 0 0 0 .447-.775l-1.368-2.36Zm-15.184-1.78a.514.514 0 0 1-.446-.774l.687-1.186 2.101-3.6 2.773-4.806a.515.515 0 0 1 .893 0l5.557 9.63a.497.497 0 0 1-.181.681.502.502 0 0 1-.25.068l-11.134-.013Z" fill="#fff" />
</svg>
