<svg width="334" height="86" viewBox="0 0 334 86" fill="none" xmlns="http://www.w3.org/2000/svg">
    <g clip-path="url(#clip0_25_3350)">
        <path d="M0.540905 0C3.23075 5.02861 6.81718 9.63852 10.0012 14.434C15.8462 23.228 21.771 31.9816 27.7756 40.695C28.9014 42.3309 28.8658 43.6043 27.7756 45.2272C18.9724 58.1131 10.2372 71.0292 1.56992 83.9756C0.617268 85.3957 -0.467815 86.0172 -2.41897 85.9999C-11.8232 85.9266 -21.2326 85.9741 -30.642 85.9611C-33.5407 85.9611 -33.663 85.7798 -32.1703 83.5785C-23.6168 70.9055 -15.0938 58.2153 -6.43336 45.5941C-5.11391 43.669 -5.14957 42.2058 -6.43336 40.285C-14.885 27.7286 -23.2092 15.1074 -31.5589 2.50351C-32.0989 1.69203 -32.537 0.837381 -33.021 0.00431568L0.540905 0Z" fill="#2C2D43" />
        <path d="M61.6227 0C64.3075 5.02861 67.894 9.63852 71.0831 14.434C76.9213 23.228 82.8461 31.9816 88.8575 40.695C89.9833 42.3309 89.9477 43.6043 88.8575 45.2272C80.0611 58.1131 71.3259 71.0292 62.6518 83.9756C61.6992 85.3957 60.6141 86.0172 58.6629 85.9999C49.2587 85.9266 39.8493 85.9741 30.4399 85.9611C27.5463 85.9611 27.424 85.7798 28.9116 83.5785C37.4702 70.9055 45.9931 58.2153 54.6485 45.5941C55.968 43.669 55.9323 42.2058 54.6485 40.285C46.1918 27.7286 37.8727 15.1074 29.5179 2.50351C29.0084 1.69203 28.5448 0.837381 28.0558 0.00431568L61.6227 0Z" fill="#2C2D43" />
        <path d="M122.72 0C125.41 5.02861 128.996 9.63852 132.18 14.434C138.025 23.228 143.95 31.9816 149.955 40.695C151.08 42.3309 151.045 43.6043 149.955 45.2272C141.151 58.1131 132.416 71.0292 123.749 83.9756C122.796 85.3957 121.711 86.0172 119.76 85.9999C110.351 85.9266 100.946 85.9741 91.5371 85.9611C88.6384 85.9611 88.5161 85.7798 90.0088 83.5785C98.5623 70.9055 107.085 58.2153 115.746 45.5941C117.065 43.669 117.03 42.2058 115.746 40.285C107.289 27.7286 98.9698 15.1074 90.6201 2.50351C90.0801 1.69203 89.642 0.837381 89.158 0.00431568L122.72 0Z" fill="#2C2D43" />
        <path d="M183.781 0C186.466 5.02861 190.053 9.63852 193.242 14.434C199.08 23.228 205.005 31.9816 211.016 40.695C212.137 42.3309 212.106 43.6043 211.016 45.2272C202.22 58.1131 193.485 71.0292 184.811 83.9756C183.858 85.3957 182.798 86.0172 180.822 85.9999C171.417 85.9266 162.008 85.9741 152.599 85.9611C149.705 85.9611 149.583 85.7798 151.07 83.5785C159.629 70.9055 168.152 58.2153 176.807 45.5941C178.127 43.669 178.091 42.2058 176.807 40.285C168.351 27.7286 160.031 15.1074 151.676 2.50351C151.167 1.69203 150.703 0.837381 150.214 0.00431568L183.781 0Z" fill="#2C2D43" />
        <path d="M244.858 0C247.548 5.02861 251.134 9.63852 254.318 14.434C260.163 23.228 266.088 31.9816 272.093 40.695C273.219 42.3309 273.183 43.6043 272.093 45.2272C263.296 58.1131 254.563 71.0292 245.892 83.9756C244.94 85.3957 243.855 86.0172 241.903 85.9999C232.494 85.9266 223.09 85.9741 213.68 85.9611C210.782 85.9611 210.659 85.7798 212.152 83.5785C220.706 70.9055 229.228 58.2153 237.889 45.5941C239.208 43.669 239.173 42.2058 237.889 40.285C229.432 27.7286 221.113 15.1074 212.763 2.50351C212.223 1.69203 211.785 0.837381 211.301 0.00431568L244.858 0Z" fill="#2C2D43" />
        <path d="M305.94 0C308.625 5.02861 312.211 9.63852 315.395 14.434C321.237 23.228 327.163 31.9816 333.175 40.695C334.295 42.3309 334.265 43.6043 333.175 45.2272C324.378 58.1131 315.643 71.0292 306.969 83.9756C306.016 85.3957 304.931 86.0172 302.98 85.9999C293.576 85.9266 284.167 85.9741 274.757 85.9611C271.864 85.9611 271.741 85.7798 273.229 83.5785C281.782 70.9055 290.31 58.2153 298.966 45.5941C300.285 43.669 300.25 42.2058 298.966 40.285C290.509 27.7286 282.19 15.1074 273.835 2.50351C273.326 1.69203 272.857 0.837381 272.373 0.00431568L305.94 0Z" fill="#2C2D43" />
    </g>
    <defs>
        <clipPath id="clip0_25_3350">
            <rect width="558" height="86" fill="white" transform="translate(-224)" />
        </clipPath>
    </defs>
</svg>
