<svg xmlns="http://www.w3.org/2000/svg" viewBox="0 0 524.98 389.25">
    <defs>
        <style>
            .a {
                fill: #2c2d43;
            }

            .b {
                fill: #d00023;
            }

            @media (prefers-color-scheme: dark) {
                path {
                    fill: #FFF !important;
                }
            }

        </style>
    </defs>
    <path class="a" d="M1017,540.44V512.72h10.46c6,0,9.48,3.14,9.48,8.32,0,3.83-1.92,6.59-5.37,7.71l5.63,11.69h-4.18l-5.17-11h-7.1v11Zm3.75-14.3h6.75c3.49,0,5.49-1.88,5.49-5.06s-2.08-5-5.53-5h-6.71Z" transform="translate(-937.74 -160.09)" />
    <path class="a" d="M1038.92,531.09c0-5.87,3.72-9.94,9.17-9.94s8.82,3.69,8.82,9.25v1.34l-14.5,0c.27,4,2.34,6.13,5.91,6.13,2.8,0,4.64-1.15,5.25-3.3h3.37c-.92,4-4.06,6.29-8.7,6.29C1042.72,540.9,1038.92,536.91,1038.92,531.09Zm3.57-1.73h10.81a4.88,4.88,0,0,0-5.21-5.18C1044.94,524.18,1043,526.06,1042.49,529.36Z" transform="translate(-937.74 -160.09)" />
    <path class="a" d="M1060.93,521.69h3.26l.27,3.38a7.21,7.21,0,0,1,6.79-3.92c5.36,0,8.7,4,8.7,9.78s-3.14,10-8.7,10c-3,0-5.49-1.26-6.71-3.57v11.47h-3.61Zm9.55,16c3.68,0,5.87-2.76,5.87-6.59s-2.19-6.64-5.87-6.64-5.91,2.72-5.91,6.64S1066.8,537.68,1070.48,537.68Z" transform="translate(-937.74 -160.09)" />
    <path class="a" d="M1083,535.23c0-3.45,2.57-5.6,7-6l5.9-.46v-.53c0-3.15-1.88-4.26-4.41-4.26-3,0-4.75,1.34-4.75,3.6h-3.15c0-3.91,3.23-6.48,8.06-6.48,4.64,0,7.78,2.46,7.78,7.52v11.77h-3.07l-.38-3c-1,2.15-3.53,3.49-6.56,3.49C1085.4,540.9,1083,538.64,1083,535.23Zm12.92-2.88v-1l-4.79.39c-3.18.3-4.49,1.53-4.49,3.37,0,2,1.46,3,3.8,3C1093.87,538.1,1095.94,535.88,1095.94,532.35Z" transform="translate(-937.74 -160.09)" />
    <path class="a" d="M1103.8,514.87a2.38,2.38,0,1,1,2.38,2.37A2.37,2.37,0,0,1,1103.8,514.87Zm.62,6.82h3.6v18.75h-3.6Z" transform="translate(-937.74 -160.09)" />
    <path class="a" d="M1124,524.84h-1.61c-3.41,0-5.52,2.07-5.52,5.67v9.93h-3.61V521.73h3.38l.23,2.84a5.29,5.29,0,0,1,5.21-3.26,8.3,8.3,0,0,1,1.92.23Z" transform="translate(-937.74 -160.09)" />
    <path class="a" d="M1154.26,538a12.6,12.6,0,0,1-8.58,3c-6,0-9.86-3.07-9.86-7.71,0-3.41,2.19-6.13,6.79-8.51-2.38-2.72-3.26-4.41-3.26-6.48,0-3.49,2.72-6,6.63-6s6.41,2.34,6.41,5.75c0,2.76-1.42,4.91-5,7.32l6.63,7.56a14.25,14.25,0,0,0,1-5.41h3.49a15,15,0,0,1-2.11,8l4.3,4.91h-4.22Zm-8.24-.12a8.46,8.46,0,0,0,6.17-2.26l-7.78-8.82c-3.45,1.92-4.83,3.72-4.83,6.21C1139.58,536,1142,537.83,1146,537.83Zm-.46-14.57c2.34-1.42,3.45-3.1,3.45-5.17a2.76,2.76,0,0,0-3.07-2.92,2.9,2.9,0,0,0-3.18,3C1142.76,519.66,1143.41,520.81,1145.56,523.26Z" transform="translate(-937.74 -160.09)" />
    <path class="a" d="M1177.08,530.55v9.89h-3.76V512.72h10.78c5.44,0,8.93,3.56,8.93,8.89a8.52,8.52,0,0,1-8.93,8.94Zm0-14.46v11.08h6.21c3.72,0,5.79-2.18,5.79-5.59s-2.11-5.49-5.63-5.49Z" transform="translate(-937.74 -160.09)" />
    <path class="a" d="M1195,535.23c0-3.45,2.57-5.6,7-6l5.9-.46v-.53c0-3.15-1.88-4.26-4.41-4.26-3,0-4.75,1.34-4.75,3.6h-3.15c0-3.91,3.22-6.48,8.06-6.48,4.64,0,7.78,2.46,7.78,7.52v11.77h-3.07l-.38-3c-1,2.15-3.53,3.49-6.56,3.49C1197.37,540.9,1195,538.64,1195,535.23Zm12.92-2.88v-1l-4.79.39c-3.18.3-4.49,1.53-4.49,3.37,0,2,1.46,3,3.8,3C1205.84,538.1,1207.91,535.88,1207.91,532.35Z" transform="translate(-937.74 -160.09)" />
    <path class="a" d="M1227.12,524.84h-1.61c-3.41,0-5.52,2.07-5.52,5.67v9.93h-3.6V521.73h3.37l.23,2.84a5.3,5.3,0,0,1,5.21-3.26,8.3,8.3,0,0,1,1.92.23Z" transform="translate(-937.74 -160.09)" />
    <path class="a" d="M1233,540.44V524.72h-3.68v-3H1233v-5.87h3.6v5.87h3.69v3h-3.69v15.72Z" transform="translate(-937.74 -160.09)" />
    <path class="a" d="M1245.37,535c0,1.91,1.46,3.07,3.84,3.07s4-1,4-2.77c0-1.26-.62-2-2.57-2.53l-3.3-.76c-3.34-.81-4.91-2.46-4.91-5.22,0-3.45,2.92-5.64,7.06-5.64s6.78,2.3,6.86,5.87h-3.45c-.08-1.88-1.34-3.07-3.53-3.07s-3.53,1-3.53,2.73c0,1.26.92,2.1,2.77,2.56l3.29.81c3.19.77,4.76,2.22,4.76,5,0,3.57-3.07,5.83-7.52,5.83s-7.21-2.34-7.21-5.9Z" transform="translate(-937.74 -160.09)" />
    <path class="a" d="M1271.72,540.44V512.72h3.68L1285,536l9.54-23.31h3.76v27.72h-3.68v-11c0-5.18,0-7.06.23-9l-8.09,20h-3.53l-8-19.9a74.44,74.44,0,0,1,.27,8.05v11.85Z" transform="translate(-937.74 -160.09)" />
    <path class="a" d="M1303.47,514.87a2.38,2.38,0,1,1,4.75,0,2.38,2.38,0,0,1-4.75,0Zm.61,6.82h3.61v18.75h-3.61Z" transform="translate(-937.74 -160.09)" />
    <path class="a" d="M1312.9,540.44V521.69h3.26l.38,2.88a7,7,0,0,1,6.21-3.42c5,0,7.21,3,7.21,7.83v11.46h-3.6V529.78c0-3.79-1.76-5.33-4.52-5.33-3.38,0-5.34,2.42-5.34,6.06v9.93Z" transform="translate(-937.74 -160.09)" />
    <path class="a" d="M1334.34,514.87a2.38,2.38,0,1,1,4.75,0,2.38,2.38,0,0,1-4.75,0Zm.61,6.82h3.6v18.75H1335Z" transform="translate(-937.74 -160.09)" />
    <path class="a" d="M1343.77,540.44V521.69H1347l.38,2.88a7,7,0,0,1,6.21-3.42c5,0,7.21,3,7.21,7.83v11.46h-3.6V529.78c0-3.79-1.77-5.33-4.53-5.33-3.37,0-5.33,2.42-5.33,6.06v9.93Z" transform="translate(-937.74 -160.09)" />
    <path class="a" d="M1373.49,521.15a7,7,0,0,1,6.55,3.72l.27-3.18h3.22v18c0,5.9-3.64,9.66-9.39,9.66-5.1,0-8.59-2.88-9.28-7.63h3.6c.46,2.76,2.53,4.37,5.68,4.37a5.49,5.49,0,0,0,5.83-5.87v-3.76a7.34,7.34,0,0,1-6.64,3.49c-5.33,0-8.7-4.1-8.7-9.35S1368,521.15,1373.49,521.15Zm.46,15.65c3.64,0,5.86-2.61,5.86-6.29s-2.14-6.21-5.83-6.21-5.75,2.76-5.75,6.21S1370.42,536.8,1374,536.8Z" transform="translate(-937.74 -160.09)" />
    <path class="a" d="M1403.35,365.26h-55.27c-4.76-14.43-14-30.46-31.28-45.46-44.48-38.55-108.62-40.69-116.83-39.68a83.11,83.11,0,0,0-25.32,3.93,80.78,80.78,0,0,0-13.24,5.54,83.76,83.76,0,0,0-30.71,27.58c4.74-18.39,13.87-41,31.23-64.41,26.88-36.29,69.36-39.65,83.31-40.77.91-.06,1.7-.12,2.37-.19a158.21,158.21,0,0,1,25.31,10.43l32.68-19a19.07,19.07,0,0,1,21.63,1.57,204.09,204.09,0,0,1,30.83,30.7,19,19,0,0,1,1.53,21.78l-18.66,32.62,0,0a158.11,158.11,0,0,1,10.54,25.26l36.53,9.68a19.07,19.07,0,0,1,14.18,16.41,203.32,203.32,0,0,1,1.21,22.2C1403.36,364.06,1403.36,364.67,1403.35,365.26Z" transform="translate(-937.74 -160.09)" />
    <path class="b" d="M1116.63,365.26h-56.35a96.74,96.74,0,0,1-9.82-24.46,81.4,81.4,0,0,1-2.16-25,158.72,158.72,0,0,1,10.42-25.31l-19-32.69a19,19,0,0,1,1.58-21.62A204.52,204.52,0,0,1,1072,205.39a19,19,0,0,1,21.79-1.54l32.62,18.65,0,.05A158.15,158.15,0,0,1,1151.68,212l9.68-36.52a19.06,19.06,0,0,1,16.41-14.2,207.13,207.13,0,0,1,43.49-.09,19,19,0,0,1,16.49,14.33l5.34,19.62,2.78,10.2c-11.5,1-60.84,2.64-91.73,44.36-38.1,51.44-38.53,99.28-37.68,111.9.06.75.11,1.37.16,1.87S1116.63,364.67,1116.63,365.26Z" transform="translate(-937.74 -160.09)" />
    <path class="a" d="M1053.27,365.26H996.59c0-.59,0-1.2,0-1.79a204.71,204.71,0,0,1,1.11-21.29A19,19,0,0,1,1012,325.69l29.91-8.14a80.74,80.74,0,0,0,11.35,47.71Z" transform="translate(-937.74 -160.09)" />
    <path class="b" d="M1339.09,365.26h-55.64c0-.75-.08-1.35-.13-1.79a83.16,83.16,0,0,0-3.93-25.32,80.72,80.72,0,0,0-5.55-13.23,83.71,83.71,0,0,0-27.36-30.58c20.79,5.23,45,14.78,64.77,31.88Q1331.17,343.49,1339.09,365.26Z" transform="translate(-937.74 -160.09)" />
    <path class="a" d="M971,410.5a27.52,27.52,0,0,1,8.41,1.39,24.46,24.46,0,0,1,7.84,4.2,21.83,21.83,0,0,1,5.8,7.23,23,23,0,0,1,2.25,10.57,19.87,19.87,0,0,1-3.07,10.82,20.8,20.8,0,0,1-8.31,7.54l-2.15.41,4.51,7.38a19.77,19.77,0,0,0,4,5.33,13.44,13.44,0,0,0,5.23,2.88,23.37,23.37,0,0,0,4.41.71V482.3h-8.21c-1.5,0-2.73,0-3.69-.05s-1.74-.09-2.36-.16a15.32,15.32,0,0,1-1.64-.26l-1.54-.35a18.1,18.1,0,0,1-6.46-3.64,24.86,24.86,0,0,1-5.23-6.82l-7.9-14.57h-5.53v25.64H937.74V410.3h33Zm-13.44,32.31h8.21a9.7,9.7,0,0,0,6.3-2.2c1.82-1.47,2.72-3.75,2.72-6.83,0-3.34-.9-5.77-2.72-7.28a9.72,9.72,0,0,0-6.41-2.25h-8.1Z" transform="translate(-937.74 -160.09)" />
    <path class="a" d="M1027.38,424.14v14.67h22.56v13.74h-22.56v15.8h25.84v13.74H1007V410.3h45.43V424Z" transform="translate(-937.74 -160.09)" />
    <path class="a" d="M1102.45,482.09H1082V453.58l-24.31-43.28h20.52l14,26.56,14-26.56h20.51l-24.41,43.28Z" transform="translate(-937.74 -160.09)" />
    <path class="a" d="M1166.65,410.3a27.61,27.61,0,0,1,8.51,1.43,24.33,24.33,0,0,1,8.06,4.47,23.21,23.21,0,0,1,5.94,7.64,24.48,24.48,0,0,1,2.31,11.07,23.34,23.34,0,0,1-1.74,8.82,24,24,0,0,1-5,7.7,24.53,24.53,0,0,1-7.84,5.43,25,25,0,0,1-10.26,2.05h-13v23.18h-19.8V410.3ZM1153.52,445h8a9.61,9.61,0,0,0,6.62-2.51q2.82-2.51,2.82-7.74,0-5.85-2.77-8.26a9.86,9.86,0,0,0-6.67-2.41h-7.89Z" transform="translate(-937.74 -160.09)" />
    <path class="b" d="M1338.83,482.09V442.81l-14,39.28H1314l-14-39.28v39.28h-20.41V410.3h26.25l13.54,37.64,13.54-37.64h26.26v71.79Z" transform="translate(-937.74 -160.09)" />
    <path class="b" d="M1369.9,482.09V410.3h20.41v71.79Z" transform="translate(-937.74 -160.09)" />
    <path class="b" d="M1441.49,482.09,1421,444.35v37.74h-20.41V410.3H1422l20.31,37.43V410.3h20.41v71.79Z" transform="translate(-937.74 -160.09)" />
    <path class="a" d="M1268.69,470h0l-4.24-7.35-4.06-7-6.56-11.37a2,2,0,0,1,0-2l5.63-9.75a1.93,1.93,0,0,0,0-1.92l-19.35-33.5a2,2,0,0,0-3.44,0l-5,8.72-14.3,24.76a2,2,0,0,1-1.72,1H1204.4a2,2,0,0,0-1.72,1L1182.77,467a2,2,0,0,0,1.73,3h39.8a2,2,0,0,1,1.72,1l5.84,10.11a2,2,0,0,0,1.72,1h38.65a2,2,0,0,0,1.72-3Zm-58.38-6.84a2,2,0,0,1-1.72-3l2.63-4.56,8-13.9,10.67-18.47a2,2,0,0,1,3.44,0l21.37,37a1.92,1.92,0,0,1-1.67,2.88Z" transform="translate(-937.74 -160.09)" />
</svg>
